<svg width="1400" height="514" viewBox="0 0 1400 514" fill="none" xmlns="http://www.w3.org/2000/svg">
<rect x="42" y="53" width="1316.13" height="408" rx="197.614" fill="#4C566A"/>
<path d="M656.29 144.904H690.472C696.502 144.904 701.938 145.972 706.78 148.109C711.623 150.198 715.468 153.402 718.317 157.723C721.213 161.996 722.661 167.36 722.661 173.817C722.661 180.226 721.213 185.686 718.317 190.196C715.468 194.659 711.623 198.077 706.78 200.451C701.938 202.777 696.502 203.941 690.472 203.941H677.582V238.907H656.29V144.904ZM677.582 187.134H684.561C687.457 187.134 690.045 186.707 692.324 185.852C694.65 184.998 696.502 183.645 697.878 181.793C699.255 179.894 699.944 177.402 699.944 174.316C699.944 171.182 699.255 168.713 697.878 166.909C696.502 165.058 694.65 163.728 692.324 162.921C690.045 162.114 687.457 161.711 684.561 161.711H677.582V187.134ZM746.752 214.267C746.895 216.356 747.559 218.207 748.746 219.821C749.933 221.435 751.571 222.717 753.66 223.667C755.796 224.569 758.313 225.02 761.209 225.02C763.962 225.02 766.431 224.735 768.615 224.165C770.846 223.596 772.769 222.883 774.383 222.029C776.045 221.174 777.327 220.296 778.229 219.394L786.632 232.782C785.445 234.064 783.76 235.322 781.576 236.556C779.439 237.743 776.615 238.717 773.101 239.476C769.588 240.236 765.149 240.616 759.784 240.616C753.328 240.616 747.583 239.405 742.551 236.984C737.518 234.563 733.554 231.002 730.658 226.302C727.762 221.602 726.314 215.857 726.314 209.068C726.314 203.371 727.548 198.243 730.017 193.686C732.533 189.081 736.165 185.449 740.913 182.79C745.66 180.084 751.381 178.731 758.075 178.731C764.437 178.731 769.944 179.894 774.597 182.22C779.297 184.547 782.905 188.012 785.421 192.618C787.985 197.175 789.267 202.872 789.267 209.709C789.267 210.089 789.243 210.848 789.196 211.988C789.196 213.127 789.148 213.887 789.053 214.267H746.752ZM768.9 202.944C768.852 201.424 768.449 199.929 767.689 198.457C766.929 196.938 765.79 195.703 764.271 194.754C762.752 193.757 760.805 193.258 758.431 193.258C756.058 193.258 754.04 193.733 752.378 194.683C750.764 195.585 749.53 196.772 748.675 198.243C747.82 199.715 747.346 201.282 747.251 202.944H768.9ZM820.252 238.907H798.603V180.44H820.252V189.484H819.896C820.275 188.392 821.201 187.015 822.673 185.354C824.145 183.645 826.21 182.125 828.868 180.796C831.527 179.419 834.779 178.731 838.625 178.731C841.331 178.731 843.823 179.158 846.102 180.013C848.381 180.82 850.043 181.603 851.087 182.363L842.684 199.953C842.019 199.145 840.832 198.315 839.123 197.46C837.462 196.558 835.373 196.107 832.856 196.107C829.96 196.107 827.563 196.843 825.664 198.315C823.812 199.786 822.436 201.567 821.533 203.656C820.679 205.745 820.252 207.715 820.252 209.566V238.907ZM852.438 180.44H862.123V164.987C862.123 159.289 863.334 154.542 865.755 150.744C868.176 146.946 871.31 144.073 875.155 142.127C879.001 140.18 882.989 139.207 887.119 139.207C892.247 139.207 896.14 139.896 898.798 141.272C901.504 142.649 903.214 143.67 903.926 144.335L895.665 160.215C895.427 159.835 894.834 159.289 893.885 158.577C892.935 157.865 891.677 157.509 890.11 157.509C889.113 157.509 888.116 157.77 887.119 158.292C886.122 158.815 885.291 159.74 884.627 161.07C884.01 162.399 883.701 164.346 883.701 166.909V180.44H898.157V198.243H883.701V238.907H862.123V198.243H852.438V180.44ZM907.914 238.907V180.44H929.563V238.907H907.914ZM919.023 168.405C915.605 168.405 912.709 167.218 910.335 164.844C907.961 162.423 906.774 159.551 906.774 156.227C906.774 152.904 907.961 150.032 910.335 147.61C912.756 145.142 915.652 143.907 919.023 143.907C921.254 143.907 923.296 144.477 925.147 145.616C926.999 146.708 928.494 148.18 929.634 150.032C930.773 151.883 931.343 153.948 931.343 156.227C931.343 159.551 930.132 162.423 927.711 164.844C925.29 167.218 922.394 168.405 919.023 168.405ZM966.2 238.907H944.48V140.916H966.2V238.907ZM997.392 214.267C997.534 216.356 998.199 218.207 999.386 219.821C1000.57 221.435 1002.21 222.717 1004.3 223.667C1006.44 224.569 1008.95 225.02 1011.85 225.02C1014.6 225.02 1017.07 224.735 1019.25 224.165C1021.49 223.596 1023.41 222.883 1025.02 222.029C1026.68 221.174 1027.97 220.296 1028.87 219.394L1037.27 232.782C1036.08 234.064 1034.4 235.322 1032.22 236.556C1030.08 237.743 1027.25 238.717 1023.74 239.476C1020.23 240.236 1015.79 240.616 1010.42 240.616C1003.97 240.616 998.222 239.405 993.19 236.984C988.158 234.563 984.193 231.002 981.297 226.302C978.401 221.602 976.953 215.857 976.953 209.068C976.953 203.371 978.188 198.243 980.656 193.686C983.173 189.081 986.804 185.449 991.552 182.79C996.3 180.084 1002.02 178.731 1008.71 178.731C1015.08 178.731 1020.58 179.894 1025.24 182.22C1029.94 184.547 1033.54 188.012 1036.06 192.618C1038.62 197.175 1039.91 202.872 1039.91 209.709C1039.91 210.089 1039.88 210.848 1039.84 211.988C1039.84 213.127 1039.79 213.887 1039.69 214.267H997.392ZM1019.54 202.944C1019.49 201.424 1019.09 199.929 1018.33 198.457C1017.57 196.938 1016.43 195.703 1014.91 194.754C1013.39 193.757 1011.44 193.258 1009.07 193.258C1006.7 193.258 1004.68 193.733 1003.02 194.683C1001.4 195.585 1000.17 196.772 999.314 198.243C998.46 199.715 997.985 201.282 997.89 202.944H1019.54ZM1077.3 178.731C1081.15 178.731 1084.66 179.063 1087.84 179.728C1091.02 180.345 1093.68 181.057 1095.82 181.864C1098 182.671 1099.4 183.336 1100.02 183.858L1092.97 196.606C1092.07 195.941 1090.38 195.086 1087.91 194.042C1085.49 192.997 1082.78 192.475 1079.79 192.475C1077.51 192.475 1075.59 192.831 1074.02 193.543C1072.46 194.208 1071.67 195.276 1071.67 196.748C1071.67 198.22 1072.53 199.407 1074.24 200.309C1075.99 201.163 1078.51 201.923 1081.79 202.587C1084.64 203.157 1087.53 204.059 1090.47 205.294C1093.42 206.528 1095.86 208.356 1097.81 210.777C1099.8 213.151 1100.8 216.332 1100.8 220.32C1100.8 224.403 1099.92 227.773 1098.17 230.432C1096.41 233.091 1094.08 235.156 1091.19 236.628C1088.29 238.099 1085.16 239.12 1081.79 239.69C1078.42 240.307 1075.14 240.616 1071.96 240.616C1067.5 240.616 1063.6 240.212 1060.28 239.405C1057 238.598 1054.35 237.672 1052.3 236.628C1050.26 235.583 1048.84 234.752 1048.03 234.135L1055.01 219.892C1056.24 220.937 1058.26 222.124 1061.06 223.453C1063.86 224.735 1066.83 225.376 1069.97 225.376C1073 225.376 1075.35 224.925 1077.02 224.023C1078.68 223.121 1079.51 221.934 1079.51 220.462C1079.51 219.275 1079.1 218.326 1078.3 217.614C1077.49 216.901 1076.35 216.284 1074.88 215.762C1073.41 215.24 1071.63 214.765 1069.54 214.338C1067.64 213.958 1065.62 213.365 1063.48 212.557C1061.35 211.75 1059.33 210.658 1057.43 209.282C1055.53 207.857 1053.99 206.077 1052.8 203.941C1051.62 201.804 1051.02 199.217 1051.02 196.178C1051.02 192.285 1052.28 189.057 1054.8 186.493C1057.31 183.929 1060.56 182.007 1064.55 180.725C1068.54 179.396 1072.79 178.731 1077.3 178.731ZM675.304 322.834C675.304 328.199 676.396 333.065 678.579 337.433C680.811 341.753 683.873 345.195 687.766 347.759C691.707 350.323 696.264 351.605 701.439 351.605C706.614 351.605 711.148 350.323 715.041 347.759C718.981 345.195 722.044 341.753 724.228 337.433C726.459 333.065 727.575 328.199 727.575 322.834C727.575 317.469 726.459 312.627 724.228 308.307C722.044 303.986 718.981 300.544 715.041 297.981C711.148 295.369 706.614 294.064 701.439 294.064C696.264 294.064 691.707 295.369 687.766 297.981C683.873 300.544 680.811 303.986 678.579 308.307C676.396 312.627 675.304 317.469 675.304 322.834ZM653.156 322.834C653.156 315.998 654.367 309.636 656.788 303.749C659.209 297.814 662.604 292.64 666.972 288.224C671.339 283.809 676.467 280.367 682.354 277.898C688.241 275.43 694.603 274.195 701.439 274.195C708.371 274.195 714.756 275.43 720.596 277.898C726.483 280.367 731.586 283.809 735.907 288.224C740.274 292.64 743.645 297.814 746.019 303.749C748.44 309.636 749.651 315.998 749.651 322.834C749.651 329.718 748.488 336.127 746.161 342.062C743.835 347.949 740.512 353.124 736.191 357.587C731.871 362.002 726.767 365.444 720.88 367.913C714.993 370.381 708.513 371.616 701.439 371.616C694.223 371.616 687.647 370.381 681.713 367.913C675.826 365.444 670.746 362.002 666.473 357.587C662.2 353.124 658.901 347.949 656.574 342.062C654.296 336.127 653.156 329.718 653.156 322.834ZM808.927 274.195C814.767 274.195 819.871 274.836 824.238 276.118C828.606 277.4 832.119 278.753 834.778 280.177C837.437 281.601 839.051 282.551 839.621 283.026L829.366 300.188C828.606 299.618 827.301 298.788 825.449 297.696C823.645 296.604 821.485 295.631 818.969 294.776C816.5 293.921 813.912 293.494 811.206 293.494C807.551 293.494 804.583 294.159 802.305 295.488C800.073 296.77 798.958 298.693 798.958 301.256C798.958 303.013 799.551 304.603 800.738 306.028C801.972 307.405 803.824 308.734 806.293 310.016C808.809 311.25 811.99 312.603 815.835 314.075C819.348 315.357 822.648 316.876 825.734 318.633C828.82 320.389 831.526 322.478 833.852 324.899C836.226 327.273 838.101 330.027 839.478 333.16C840.855 336.294 841.543 339.854 841.543 343.842C841.543 348.59 840.57 352.72 838.624 356.233C836.677 359.699 834.019 362.572 830.648 364.85C827.324 367.129 823.526 368.815 819.254 369.907C815.028 371.046 810.637 371.616 806.079 371.616C799.622 371.616 793.83 370.88 788.703 369.408C783.623 367.936 779.516 366.346 776.383 364.637C773.249 362.928 771.374 361.788 770.757 361.218L781.368 343.344C781.937 343.771 783.029 344.459 784.644 345.409C786.305 346.359 788.323 347.356 790.697 348.4C793.071 349.397 795.587 350.252 798.245 350.964C800.952 351.676 803.61 352.032 806.221 352.032C810.589 352.032 813.865 351.201 816.049 349.539C818.233 347.83 819.325 345.599 819.325 342.845C819.325 340.804 818.636 338.976 817.26 337.362C815.883 335.748 813.818 334.228 811.064 332.804C808.31 331.332 804.868 329.789 800.738 328.175C796.607 326.514 792.738 324.496 789.13 322.122C785.569 319.748 782.673 316.781 780.442 313.22C778.211 309.66 777.095 305.244 777.095 299.975C777.095 294.705 778.567 290.147 781.51 286.301C784.501 282.408 788.418 279.417 793.26 277.329C798.15 275.24 803.373 274.195 808.927 274.195ZM921.527 275.904H942.82V333.659C942.82 341.397 941.3 348.115 938.262 353.812C935.223 359.462 930.879 363.853 925.23 366.987C919.58 370.073 912.839 371.616 905.005 371.616C897.124 371.616 890.335 370.073 884.638 366.987C878.941 363.853 874.573 359.462 871.534 353.812C868.544 348.115 867.048 341.397 867.048 333.659V275.904H888.27V332.519C888.27 336.792 888.934 340.4 890.264 343.344C891.641 346.287 893.587 348.519 896.103 350.038C898.619 351.51 901.587 352.246 905.005 352.246C908.376 352.246 911.296 351.51 913.764 350.038C916.233 348.519 918.132 346.287 919.461 343.344C920.838 340.4 921.527 336.792 921.527 332.519V275.904ZM1020.47 350.536C1024.84 350.536 1028.81 349.895 1032.37 348.614C1035.97 347.332 1038.66 346.074 1040.41 344.839L1049.53 362.928C1047.3 364.827 1043.48 366.749 1038.06 368.696C1032.7 370.642 1026.31 371.616 1018.91 371.616C1011.98 371.616 1005.47 370.405 999.395 367.984C993.318 365.563 987.953 362.168 983.3 357.8C978.695 353.385 975.063 348.234 972.404 342.347C969.793 336.412 968.488 329.979 968.488 323.048C968.488 316.116 969.793 309.683 972.404 303.749C975.016 297.767 978.624 292.568 983.229 288.153C987.882 283.738 993.246 280.32 999.323 277.898C1005.45 275.43 1011.98 274.195 1018.91 274.195C1026.31 274.195 1032.7 275.168 1038.06 277.115C1043.48 279.061 1047.3 280.984 1049.53 282.883L1040.41 300.972C1038.66 299.69 1035.97 298.432 1032.37 297.197C1028.81 295.915 1024.84 295.274 1020.47 295.274C1015.63 295.274 1011.41 296.034 1007.8 297.553C1004.19 299.025 1001.17 301.066 998.754 303.678C996.332 306.289 994.528 309.232 993.341 312.508C992.154 315.784 991.561 319.226 991.561 322.834C991.561 326.49 992.154 329.979 993.341 333.303C994.528 336.578 996.332 339.522 998.754 342.133C1001.17 344.744 1004.19 346.81 1007.8 348.329C1011.41 349.801 1015.63 350.536 1020.47 350.536Z" fill="#F2F4F8"/>
<path d="M1089.91 371.616C1086.4 371.616 1083.36 370.358 1080.8 367.841C1078.28 365.278 1077.02 362.239 1077.02 358.726C1077.02 355.118 1078.28 352.056 1080.8 349.539C1083.36 346.976 1086.4 345.694 1089.91 345.694C1093.52 345.694 1096.58 346.976 1099.1 349.539C1101.61 352.056 1102.87 355.118 1102.87 358.726C1102.87 362.239 1101.61 365.278 1099.1 367.841C1096.58 370.358 1093.52 371.616 1089.91 371.616Z" fill="#0073DE"/>
<path fill-rule="evenodd" clip-rule="evenodd" d="M345.209 165.733C332.788 165.733 320.876 170.009 312.093 177.621C303.31 185.232 298.376 195.556 298.376 206.321C298.376 217.085 303.31 227.409 312.093 235.02C320.876 242.632 332.788 246.908 345.209 246.908C357.629 246.908 369.541 242.632 378.324 235.02C387.107 227.409 392.041 217.085 392.041 206.321C392.041 195.556 387.107 185.232 378.324 177.621C369.541 170.009 357.629 165.733 345.209 165.733ZM263.252 206.321C263.25 194.547 266.625 182.959 273.073 172.596C279.521 162.234 288.84 153.424 300.192 146.957C311.544 140.49 324.572 136.571 338.106 135.551C351.639 134.53 365.253 136.441 377.722 141.112C390.192 145.782 401.127 153.066 409.543 162.307C417.959 171.549 423.592 182.458 425.936 194.055C428.28 205.651 427.262 217.571 422.972 228.741C418.682 239.912 411.256 249.983 401.361 258.05C420.02 265.895 436.221 277.525 448.589 291.953C460.958 306.382 469.128 323.183 472.406 340.93C473.137 344.918 472.008 348.995 469.268 352.262C466.531 355.529 462.407 357.719 457.806 358.352C453.205 358.985 448.501 358.007 444.731 355.633C440.961 353.26 438.433 349.687 437.703 345.699C434.16 326.651 422.905 309.318 405.956 296.807C389.007 284.297 367.472 277.426 345.209 277.426C322.946 277.426 301.41 284.297 284.461 296.807C267.512 309.318 256.258 326.651 252.714 345.699C252.352 347.674 251.543 349.567 250.336 351.272C249.129 352.976 247.546 354.458 245.678 355.631C243.81 356.806 241.694 357.648 239.45 358.113C237.206 358.579 234.878 358.657 232.6 358.342C230.321 358.027 228.136 357.327 226.17 356.28C224.204 355.235 222.494 353.863 221.14 352.244C219.785 350.626 218.812 348.792 218.275 346.846C217.738 344.901 217.648 342.884 218.011 340.91C221.297 323.169 229.471 306.377 241.838 291.956C254.206 277.535 270.403 265.912 289.056 258.07C280.896 251.435 274.396 243.418 269.957 234.516C265.518 225.615 263.236 216.018 263.252 206.321ZM473.998 175.88C469.341 175.88 464.873 177.483 461.581 180.338C458.286 183.192 456.436 187.063 456.436 191.1C456.436 195.137 458.286 199.008 461.581 201.863C464.873 204.717 469.341 206.321 473.998 206.321C481.92 206.321 489.61 208.643 495.82 212.909C502.028 217.175 506.39 223.135 508.196 229.82C510.001 236.506 509.146 243.525 505.77 249.736C502.393 255.948 496.693 260.987 489.594 264.036C486.667 265.298 484.203 267.243 482.482 269.653C480.761 272.062 479.85 274.84 479.852 277.674V284.817C479.848 288.236 481.171 291.557 483.608 294.244C486.046 296.932 489.458 298.83 493.293 299.632C521.393 305.497 543.919 323.984 552.349 347.769C553.017 349.687 554.117 351.473 555.583 353.023C557.051 354.571 558.857 355.856 560.899 356.8C562.938 357.741 565.174 358.326 567.476 358.519C569.778 358.711 572.101 358.506 574.314 357.92C576.524 357.331 578.58 356.371 580.36 355.093C582.142 353.814 583.615 352.244 584.694 350.47C585.774 348.698 586.439 346.758 586.649 344.761C586.863 342.766 586.617 340.753 585.928 338.84C581.24 325.661 573.508 313.446 563.203 302.94C552.897 292.431 540.234 283.849 525.983 277.714C535.136 268.987 541.17 258.142 543.346 246.499C545.523 234.856 543.751 222.916 538.246 212.13C532.738 201.343 523.735 192.175 512.331 185.74C500.925 179.305 487.608 175.879 473.998 175.88Z" fill="#C1C8D7"/>
</svg>
