<svg width="680" height="680" viewBox="0 0 680 680" fill="none" xmlns="http://www.w3.org/2000/svg">
<rect x="55" y="55" width="569" height="569" rx="275.594" fill="#4C566A"/>
<path fill-rule="evenodd" clip-rule="evenodd" d="M284.202 279.887C272.461 279.887 261.201 284.551 252.899 292.853C244.597 301.155 239.933 312.415 239.933 324.156C239.933 335.897 244.597 347.157 252.899 355.459C261.201 363.761 272.461 368.425 284.202 368.425C295.943 368.425 307.203 363.761 315.505 355.459C323.807 347.157 328.471 335.897 328.471 324.156C328.471 312.415 323.807 301.155 315.505 292.853C307.203 284.551 295.943 279.887 284.202 279.887ZM206.731 324.156C206.73 311.315 209.92 298.675 216.015 287.373C222.11 276.071 230.919 266.462 241.649 259.409C252.38 252.355 264.695 248.08 277.488 246.967C290.28 245.854 303.149 247.939 314.936 253.033C326.723 258.127 337.059 266.071 345.014 276.151C352.97 286.231 358.295 298.13 360.511 310.778C362.726 323.426 361.764 336.427 357.709 348.611C353.654 360.794 346.634 371.779 337.28 380.577C354.919 389.134 370.232 401.819 381.923 417.555C393.615 433.292 401.338 451.618 404.437 470.974C405.127 475.324 404.06 479.77 401.471 483.334C398.883 486.898 394.985 489.286 390.636 489.977C386.286 490.667 381.84 489.6 378.276 487.011C374.712 484.423 372.323 480.525 371.633 476.176C368.284 455.4 357.645 436.495 341.624 422.85C325.603 409.205 305.246 401.711 284.202 401.711C263.158 401.711 242.801 409.205 226.78 422.85C210.759 436.495 200.12 455.4 196.771 476.176C196.428 478.329 195.664 480.395 194.523 482.254C193.381 484.113 191.885 485.729 190.12 487.008C188.354 488.29 186.354 489.209 184.233 489.715C182.111 490.225 179.911 490.309 177.757 489.966C175.603 489.622 173.538 488.859 171.679 487.717C169.821 486.577 168.205 485.08 166.924 483.314C165.644 481.55 164.724 479.549 164.216 477.426C163.709 475.306 163.624 473.106 163.967 470.952C167.074 451.602 174.799 433.288 186.49 417.558C198.18 401.83 213.491 389.152 231.123 380.599C223.41 373.362 217.265 364.618 213.07 354.909C208.874 345.2 206.716 334.733 206.731 324.156ZM405.942 290.954C401.539 290.954 397.316 292.703 394.204 295.817C391.09 298.93 389.341 303.152 389.341 307.555C389.341 311.958 391.09 316.18 394.204 319.294C397.316 322.407 401.539 324.156 405.942 324.156C413.43 324.157 420.699 326.689 426.569 331.342C432.437 335.995 436.56 342.495 438.267 349.787C439.974 357.079 439.166 364.735 435.974 371.509C432.782 378.284 427.395 383.781 420.683 387.107C417.917 388.483 415.588 390.605 413.961 393.232C412.334 395.86 411.473 398.89 411.475 401.981V409.772C411.471 413.501 412.722 417.123 415.026 420.054C417.33 422.985 420.555 425.056 424.181 425.93C450.742 432.327 472.035 452.492 480.004 478.433C480.635 480.525 481.675 482.473 483.061 484.164C484.448 485.853 486.155 487.254 488.085 488.283C490.013 489.31 492.127 489.948 494.303 490.158C496.478 490.368 498.674 490.145 500.766 489.505C502.855 488.863 504.799 487.816 506.481 486.422C508.165 485.027 509.558 483.314 510.578 481.38C511.599 479.447 512.227 477.331 512.426 475.153C512.628 472.977 512.395 470.782 511.745 468.694C507.313 454.32 500.005 440.997 490.263 429.538C480.522 418.076 468.551 408.716 455.08 402.025C463.733 392.506 469.437 380.678 471.493 367.979C473.552 355.28 471.876 342.257 466.672 330.492C461.466 318.727 452.955 308.728 442.176 301.709C431.394 294.69 418.806 290.953 405.942 290.954Z" fill="#C1C8D7"/>
<circle cx="340.189" cy="148.685" r="30.3099" fill="#0073DE"/>
</svg>
