<svg width="1324" height="419" viewBox="0 0 1324 419" fill="none" xmlns="http://www.w3.org/2000/svg">
<rect x="4" y="6" width="1316.13" height="408" rx="197.614" fill="#4C566A"/>
<path d="M654.626 97.8842V191.886H633.404V136.553L634.33 120.815L630.698 138.832L614.888 184.338H594.023L578.284 138.832L574.724 120.815L575.649 136.553V191.886H554.356V97.8842H584.266L603.209 160.624L604.491 168.101L605.773 160.624L624.716 97.8842H654.626ZM688.917 167.246C689.06 169.335 689.724 171.187 690.911 172.801C692.098 174.415 693.736 175.697 695.825 176.647C697.961 177.549 700.478 178 703.374 178C706.127 178 708.596 177.715 710.78 177.145C713.011 176.575 714.934 175.863 716.548 175.009C718.21 174.154 719.492 173.276 720.394 172.374L728.797 185.762C727.61 187.044 725.925 188.302 723.741 189.536C721.604 190.723 718.78 191.697 715.266 192.456C711.753 193.216 707.314 193.596 701.949 193.596C695.493 193.596 689.748 192.385 684.716 189.964C679.683 187.542 675.719 183.982 672.823 179.282C669.927 174.581 668.479 168.837 668.479 162.048C668.479 156.351 669.713 151.223 672.182 146.666C674.698 142.06 678.33 138.429 683.078 135.77C687.825 133.064 693.546 131.711 700.24 131.711C706.602 131.711 712.109 132.874 716.762 135.2C721.462 137.527 725.07 140.992 727.586 145.597C730.15 150.155 731.432 155.852 731.432 162.689C731.432 163.069 731.408 163.828 731.361 164.968C731.361 166.107 731.313 166.867 731.218 167.246H688.917ZM711.065 155.923C711.017 154.404 710.614 152.909 709.854 151.437C709.095 149.918 707.955 148.683 706.436 147.734C704.917 146.737 702.97 146.238 700.596 146.238C698.223 146.238 696.205 146.713 694.543 147.663C692.929 148.565 691.695 149.752 690.84 151.223C689.985 152.695 689.511 154.262 689.416 155.923H711.065ZM823.02 131.711C827.435 131.711 831.328 132.637 834.699 134.488C838.069 136.292 840.704 139.093 842.603 142.891C844.55 146.689 845.523 151.579 845.523 157.561V191.886H824.23V160.837C824.23 156.754 823.613 153.455 822.379 150.938C821.144 148.422 818.699 147.164 815.044 147.164C812.86 147.164 810.937 147.734 809.275 148.873C807.614 150.013 806.332 151.603 805.43 153.645C804.528 155.639 804.077 158.036 804.077 160.837V191.886H784.208V160.837C784.208 156.754 783.52 153.455 782.143 150.938C780.814 148.422 778.44 147.164 775.021 147.164C772.838 147.164 770.915 147.734 769.253 148.873C767.591 149.965 766.31 151.532 765.408 153.573C764.553 155.567 764.126 157.989 764.126 160.837V191.886H742.619V133.42H764.126V141.752C764.695 140.28 765.93 138.785 767.829 137.265C769.775 135.699 772.173 134.393 775.021 133.349C777.87 132.257 780.885 131.711 784.066 131.711C787.531 131.711 790.427 132.233 792.754 133.277C795.08 134.274 796.979 135.627 798.451 137.337C799.97 139.046 801.181 140.897 802.083 142.891C802.747 141.182 804.053 139.473 806 137.764C807.993 136.007 810.462 134.559 813.406 133.42C816.397 132.28 819.601 131.711 823.02 131.711ZM857.707 191.886V93.8962H879.356V141.966C879.784 140.636 880.876 139.188 882.632 137.621C884.436 136.007 886.786 134.631 889.682 133.491C892.626 132.304 895.949 131.711 899.652 131.711C905.35 131.711 910.287 133.111 914.465 135.912C918.643 138.713 921.871 142.464 924.15 147.164C926.429 151.817 927.568 156.992 927.568 162.689C927.568 168.386 926.429 173.584 924.15 178.285C921.871 182.937 918.643 186.664 914.465 189.465C910.287 192.219 905.35 193.596 899.652 193.596C896.519 193.596 893.552 193.026 890.751 191.886C887.997 190.794 885.6 189.394 883.558 187.685C881.564 185.928 880.092 184.172 879.143 182.415V191.886H857.707ZM906.346 162.689C906.346 160.03 905.753 157.656 904.566 155.567C903.427 153.431 901.836 151.769 899.795 150.582C897.801 149.348 895.546 148.731 893.03 148.731C890.418 148.731 888.068 149.348 885.979 150.582C883.938 151.769 882.324 153.431 881.137 155.567C879.95 157.656 879.356 160.03 879.356 162.689C879.356 165.347 879.95 167.745 881.137 169.881C882.324 171.97 883.938 173.608 885.979 174.795C888.068 175.982 890.418 176.575 893.03 176.575C895.546 176.575 897.801 175.982 899.795 174.795C901.836 173.608 903.427 171.97 904.566 169.881C905.753 167.745 906.346 165.347 906.346 162.689ZM954.856 167.246C954.999 169.335 955.664 171.187 956.85 172.801C958.037 174.415 959.675 175.697 961.764 176.647C963.901 177.549 966.417 178 969.313 178C972.067 178 974.535 177.715 976.719 177.145C978.951 176.575 980.873 175.863 982.487 175.009C984.149 174.154 985.431 173.276 986.333 172.374L994.736 185.762C993.549 187.044 991.864 188.302 989.68 189.536C987.544 190.723 984.719 191.697 981.206 192.456C977.692 193.216 973.253 193.596 967.889 193.596C961.432 193.596 955.687 192.385 950.655 189.964C945.622 187.542 941.658 183.982 938.762 179.282C935.866 174.581 934.418 168.837 934.418 162.048C934.418 156.351 935.652 151.223 938.121 146.666C940.637 142.06 944.269 138.429 949.017 135.77C953.765 133.064 959.485 131.711 966.179 131.711C972.541 131.711 978.048 132.874 982.701 135.2C987.401 137.527 991.009 140.992 993.526 145.597C996.089 150.155 997.371 155.852 997.371 162.689C997.371 163.069 997.347 163.828 997.3 164.968C997.3 166.107 997.252 166.867 997.158 167.246H954.856ZM977.004 155.923C976.957 154.404 976.553 152.909 975.793 151.437C975.034 149.918 973.894 148.683 972.375 147.734C970.856 146.737 968.909 146.238 966.536 146.238C964.162 146.238 962.144 146.713 960.482 147.663C958.868 148.565 957.634 149.752 956.779 151.223C955.925 152.695 955.45 154.262 955.355 155.923H977.004ZM1028.36 191.886H1006.71V133.42H1028.36V142.464H1028C1028.38 141.372 1029.31 139.995 1030.78 138.334C1032.25 136.624 1034.31 135.105 1036.97 133.776C1039.63 132.399 1042.88 131.711 1046.73 131.711C1049.44 131.711 1051.93 132.138 1054.21 132.993C1056.49 133.8 1058.15 134.583 1059.19 135.343L1050.79 152.932C1050.12 152.125 1048.94 151.295 1047.23 150.44C1045.57 149.538 1043.48 149.087 1040.96 149.087C1038.06 149.087 1035.67 149.823 1033.77 151.295C1031.92 152.766 1030.54 154.547 1029.64 156.636C1028.78 158.725 1028.36 160.695 1028.36 162.546V191.886ZM1090.26 131.711C1094.11 131.711 1097.62 132.043 1100.8 132.708C1103.98 133.325 1106.64 134.037 1108.78 134.844C1110.96 135.651 1112.36 136.316 1112.98 136.838L1105.93 149.585C1105.03 148.921 1103.34 148.066 1100.87 147.022C1098.45 145.977 1095.75 145.455 1092.75 145.455C1090.48 145.455 1088.55 145.811 1086.99 146.523C1085.42 147.188 1084.64 148.256 1084.64 149.728C1084.64 151.2 1085.49 152.386 1087.2 153.289C1088.96 154.143 1091.47 154.903 1094.75 155.567C1097.6 156.137 1100.49 157.039 1103.44 158.274C1106.38 159.508 1108.82 161.336 1110.77 163.757C1112.77 166.131 1113.76 169.312 1113.76 173.3C1113.76 177.383 1112.88 180.753 1111.13 183.412C1109.37 186.071 1107.04 188.136 1104.15 189.608C1101.25 191.079 1098.12 192.1 1094.75 192.67C1091.38 193.287 1088.1 193.596 1084.92 193.596C1080.46 193.596 1076.57 193.192 1073.24 192.385C1069.97 191.578 1067.31 190.652 1065.27 189.608C1063.22 188.563 1061.8 187.732 1060.99 187.115L1067.97 172.872C1069.21 173.917 1071.22 175.104 1074.03 176.433C1076.83 177.715 1079.79 178.356 1082.93 178.356C1085.97 178.356 1088.32 177.905 1089.98 177.003C1091.64 176.101 1092.47 174.914 1092.47 173.442C1092.47 172.255 1092.07 171.306 1091.26 170.594C1090.45 169.881 1089.31 169.264 1087.84 168.742C1086.37 168.22 1084.59 167.745 1082.5 167.318C1080.6 166.938 1078.58 166.344 1076.45 165.537C1074.31 164.73 1072.29 163.638 1070.39 162.261C1068.49 160.837 1066.95 159.057 1065.76 156.92C1064.58 154.784 1063.98 152.197 1063.98 149.158C1063.98 145.265 1065.24 142.037 1067.76 139.473C1070.27 136.909 1073.53 134.987 1077.51 133.705C1081.5 132.375 1085.75 131.711 1090.26 131.711ZM573.655 275.814C573.655 281.179 574.747 286.045 576.931 290.413C579.163 294.733 582.225 298.175 586.118 300.739C590.058 303.303 594.616 304.584 599.791 304.584C604.966 304.584 609.5 303.303 613.393 300.739C617.333 298.175 620.395 294.733 622.579 290.413C624.811 286.045 625.926 281.179 625.926 275.814C625.926 270.449 624.811 265.607 622.579 261.286C620.395 256.966 617.333 253.524 613.393 250.96C609.5 248.349 604.966 247.044 599.791 247.044C594.616 247.044 590.058 248.349 586.118 250.96C582.225 253.524 579.163 256.966 576.931 261.286C574.747 265.607 573.655 270.449 573.655 275.814ZM551.508 275.814C551.508 268.978 552.719 262.616 555.14 256.729C557.561 250.794 560.956 245.619 565.323 241.204C569.691 236.789 574.819 233.347 580.706 230.878C586.593 228.409 592.954 227.175 599.791 227.175C606.722 227.175 613.108 228.409 618.947 230.878C624.834 233.347 629.938 236.789 634.258 241.204C638.626 245.619 641.997 250.794 644.371 256.729C646.792 262.616 648.003 268.978 648.003 275.814C648.003 282.698 646.84 289.107 644.513 295.042C642.187 300.929 638.864 306.104 634.543 310.566C630.223 314.982 625.119 318.424 619.232 320.892C613.345 323.361 606.865 324.596 599.791 324.596C592.575 324.596 585.999 323.361 580.065 320.892C574.178 318.424 569.098 314.982 564.825 310.566C560.552 306.104 557.252 300.929 554.926 295.042C552.647 289.107 551.508 282.698 551.508 275.814ZM735.053 227.175C740.892 227.175 745.996 227.816 750.364 229.098C754.731 230.38 758.245 231.733 760.903 233.157C763.562 234.581 765.176 235.531 765.746 236.006L755.491 253.168C754.731 252.598 753.426 251.768 751.574 250.676C749.77 249.584 747.61 248.61 745.094 247.756C742.625 246.901 740.038 246.474 737.332 246.474C733.676 246.474 730.709 247.139 728.43 248.468C726.198 249.75 725.083 251.673 725.083 254.236C725.083 255.993 725.676 257.583 726.863 259.008C728.097 260.384 729.949 261.714 732.418 262.996C734.934 264.23 738.115 265.583 741.96 267.055C745.474 268.337 748.773 269.856 751.859 271.612C754.945 273.369 757.651 275.458 759.978 277.879C762.351 280.253 764.227 283.007 765.603 286.14C766.98 289.274 767.669 292.834 767.669 296.822C767.669 301.57 766.695 305.7 764.749 309.213C762.802 312.679 760.144 315.551 756.773 317.83C753.45 320.109 749.652 321.794 745.379 322.886C741.153 324.026 736.762 324.596 732.204 324.596C725.747 324.596 719.955 323.86 714.828 322.388C709.748 320.916 705.641 319.326 702.508 317.617C699.375 315.907 697.499 314.768 696.882 314.198L707.493 296.324C708.063 296.751 709.155 297.439 710.769 298.389C712.43 299.338 714.448 300.335 716.822 301.38C719.196 302.377 721.712 303.231 724.371 303.944C727.077 304.656 729.735 305.012 732.347 305.012C736.714 305.012 739.99 304.181 742.174 302.519C744.358 300.81 745.45 298.579 745.45 295.825C745.45 293.784 744.762 291.956 743.385 290.342C742.008 288.728 739.943 287.208 737.189 285.784C734.436 284.312 730.994 282.769 726.863 281.155C722.733 279.493 718.863 277.476 715.255 275.102C711.695 272.728 708.799 269.761 706.567 266.2C704.336 262.64 703.22 258.224 703.22 252.954C703.22 247.685 704.692 243.127 707.635 239.281C710.626 235.388 714.543 232.397 719.386 230.308C724.276 228.219 729.498 227.175 735.053 227.175ZM875.425 228.884H896.718V286.639C896.718 294.377 895.199 301.095 892.16 306.792C889.122 312.442 884.778 316.833 879.128 319.967C873.479 323.053 866.737 324.596 858.904 324.596C851.023 324.596 844.234 323.053 838.536 319.967C832.839 316.833 828.472 312.442 825.433 306.792C822.442 301.095 820.947 294.377 820.947 286.639V228.884H842.168V285.499C842.168 289.772 842.833 293.38 844.162 296.324C845.539 299.267 847.486 301.499 850.002 303.018C852.518 304.49 855.485 305.225 858.904 305.225C862.274 305.225 865.194 304.49 867.663 303.018C870.132 301.499 872.031 299.267 873.36 296.324C874.737 293.38 875.425 289.772 875.425 285.499V228.884ZM1002.15 303.516C1006.51 303.516 1010.48 302.875 1014.04 301.594C1017.65 300.312 1020.33 299.054 1022.09 297.819L1031.2 315.907C1028.97 317.807 1025.15 319.729 1019.74 321.676C1014.37 323.622 1007.99 324.596 1000.58 324.596C993.648 324.596 987.143 323.385 981.067 320.964C974.99 318.542 969.625 315.148 964.972 310.78C960.367 306.365 956.735 301.214 954.076 295.327C951.465 289.392 950.16 282.959 950.16 276.028C950.16 269.096 951.465 262.663 954.076 256.729C956.688 250.747 960.296 245.548 964.901 241.133C969.554 236.718 974.918 233.299 980.995 230.878C987.12 228.409 993.648 227.175 1000.58 227.175C1007.99 227.175 1014.37 228.148 1019.74 230.095C1025.15 232.041 1028.97 233.964 1031.2 235.863L1022.09 253.951C1020.33 252.67 1017.65 251.411 1014.04 250.177C1010.48 248.895 1006.51 248.254 1002.15 248.254C997.303 248.254 993.078 249.014 989.47 250.533C985.862 252.005 982.847 254.046 980.426 256.658C978.004 259.269 976.2 262.212 975.013 265.488C973.826 268.764 973.233 272.206 973.233 275.814C973.233 279.47 973.826 282.959 975.013 286.283C976.2 289.558 978.004 292.502 980.426 295.113C982.847 297.724 985.862 299.789 989.47 301.309C993.078 302.78 997.303 303.516 1002.15 303.516Z" fill="#F2F4F8"/>
<path d="M1099.36 324.596C1095.84 324.596 1092.81 323.337 1090.24 320.821C1087.73 318.258 1086.47 315.219 1086.47 311.706C1086.47 308.098 1087.73 305.036 1090.24 302.519C1092.81 299.956 1095.84 298.674 1099.36 298.674C1102.97 298.674 1106.03 299.956 1108.54 302.519C1111.06 305.036 1112.32 308.098 1112.32 311.706C1112.32 315.219 1111.06 318.258 1108.54 320.821C1106.03 323.337 1102.97 324.596 1099.36 324.596Z" fill="#0073DE"/>
<path fill-rule="evenodd" clip-rule="evenodd" d="M243.561 118.713C231.14 118.713 219.228 122.989 210.445 130.6C201.663 138.212 196.728 148.536 196.728 159.3C196.728 170.065 201.663 180.389 210.445 188C219.228 195.612 231.14 199.888 243.561 199.888C255.982 199.888 267.894 195.612 276.677 188C285.459 180.389 290.393 170.065 290.393 159.3C290.393 148.536 285.459 138.212 276.677 130.6C267.894 122.989 255.982 118.713 243.561 118.713ZM161.604 159.3C161.602 147.527 164.977 135.939 171.425 125.576C177.874 115.214 187.193 106.404 198.544 99.937C209.896 93.4704 222.925 89.5506 236.458 88.5304C249.991 87.5101 263.605 89.4211 276.075 94.0916C288.544 98.7622 299.479 106.046 307.895 115.287C316.311 124.529 321.944 135.438 324.289 147.035C326.633 158.631 325.614 170.551 321.324 181.721C317.035 192.892 309.608 202.963 299.713 211.03C318.373 218.875 334.573 230.505 346.941 244.933C359.31 259.361 367.48 276.163 370.758 293.91C371.489 297.897 370.36 301.975 367.621 305.242C364.883 308.509 360.76 310.699 356.158 311.332C351.557 311.965 346.853 310.987 343.083 308.613C339.313 306.24 336.785 302.667 336.055 298.679C332.512 279.631 321.257 262.298 304.309 249.787C287.36 237.277 265.824 230.406 243.561 230.406C221.298 230.406 199.762 237.277 182.813 249.787C165.864 262.298 154.61 279.631 151.067 298.679C150.704 300.653 149.896 302.547 148.688 304.251C147.481 305.956 145.898 307.438 144.031 308.611C142.163 309.786 140.046 310.628 137.802 311.093C135.558 311.559 133.231 311.636 130.952 311.322C128.673 311.007 126.489 310.307 124.522 309.26C122.556 308.215 120.847 306.843 119.492 305.224C118.137 303.606 117.164 301.772 116.627 299.825C116.09 297.881 116.001 295.864 116.364 293.889C119.65 276.149 127.823 259.357 140.19 244.936C152.558 230.515 168.755 218.891 187.409 211.05C179.249 204.415 172.748 196.398 168.309 187.496C163.871 178.594 161.588 168.998 161.604 159.3ZM372.351 128.86C367.693 128.86 363.225 130.463 359.933 133.318C356.638 136.172 354.789 140.043 354.789 144.08C354.789 148.117 356.638 151.988 359.933 154.843C363.225 157.697 367.693 159.3 372.351 159.3C380.272 159.301 387.962 161.623 394.172 165.889C400.38 170.155 404.742 176.115 406.548 182.8C408.353 189.486 407.499 196.505 404.122 202.716C400.745 208.928 395.046 213.967 387.946 217.016C385.019 218.278 382.556 220.223 380.834 222.633C379.113 225.042 378.202 227.82 378.205 230.654V237.797C378.2 241.216 379.523 244.537 381.961 247.224C384.398 249.912 387.81 251.81 391.646 252.612C419.745 258.477 442.272 276.964 450.702 300.749C451.369 302.667 452.47 304.452 453.935 306.003C455.404 307.551 457.209 308.836 459.251 309.78C461.29 310.721 463.527 311.306 465.829 311.498C468.13 311.691 470.453 311.486 472.666 310.9C474.877 310.311 476.933 309.351 478.712 308.073C480.494 306.794 481.967 305.224 483.047 303.45C484.126 301.678 484.791 299.738 485.002 297.741C485.215 295.746 484.969 293.733 484.281 291.819C479.593 278.641 471.861 266.426 461.555 255.92C451.25 245.411 438.586 236.829 424.335 230.694C433.488 221.967 439.523 211.122 441.698 199.479C443.876 187.836 442.103 175.896 436.598 165.11C431.09 154.323 422.087 145.155 410.683 138.72C399.277 132.284 385.96 128.859 372.351 128.86Z" fill="#C1C8D7"/>
</svg>
